<?xml version="1.0" encoding="utf-8"?>
<!-- Generator: Adobe Illustrator 22.0.1, SVG Export Plug-In . SVG Version: 6.00 Build 0)  -->
<svg version="1.1" id="Layer_1" xmlns="http://www.w3.org/2000/svg" xmlns:xlink="http://www.w3.org/1999/xlink" x="0px" y="0px"
	 viewBox="0 0 980 980" style="enable-background:new 0 0 980 980;" xml:space="preserve">
<style type="text/css">
	.st0{fill:#F7F7F7;}
</style>
<g>
	<path class="st0" d="M705,481.1c-16.1-9.3-32.3-18.5-48.4-27.8c-21.5-12.3-43-24.5-64.5-36.8c-21.5-12.3-42.9-24.8-64.3-37.1
		c-23.8-13.6-47.6-27.1-71.4-40.8c-26.1-15-52.3-29.8-78.1-45.1c-9.6-5.7-19.6,0-19.5,11.5c0.5,61.8,0.2,123.7,0.2,185.5
		c0,62.3,0,124.7,0,187c0,4.8,0.9,9,5.3,11.6c4.8,2.9,9.4,1.8,14.1-0.9c17.5-10.2,35.2-20.2,52.7-30.2c19-10.9,38.1-21.8,57.1-32.7
		c19.3-11.1,38.6-22.2,57.9-33.3c19-10.9,38.1-21.8,57.1-32.7c19.3-11.1,38.6-22.2,57.9-33.3c14.8-8.5,29.7-17,44.4-25.8
		C712.5,496,712.1,485.2,705,481.1z"/>
	<path class="st0" d="M980.5,457.1c0.1-9.3-0.3-18.7-1.4-27.9c-8-63.2-27.5-122.7-58.6-178.3c-28.8-51.6-65.9-96.4-110.8-134.7
		C756.4,70.8,696.2,38.3,629,18.7c-27.1-7.9-54.6-13.6-82.7-16.3C538.2,1.6,530.1,2.1,522,1c-20.7,0-41.3,0-62,0
		c-1.4,1-2.9,0.5-4.4,0.5c-10.3,0.2-20.6,0.7-30.8,2.1C358.5,12.4,296.7,34,239.2,68.2c-37,22-70.4,48.5-100.5,79.4
		c-18.7,19.2-35.7,39.6-51,61.4c-29.1,41.5-51.2,86.5-66.3,134.9c-9.2,29.5-15.7,59.6-19,90.3C1.6,442.8,2.1,451.4,1,460
		c0,20.7,0,41.3,0,62c0.8,0.8,0.5,1.9,0.5,2.9c0.1,13,1,25.9,2.9,38.8c10.3,69.8,34.7,134.2,72.7,193.6c26,40.5,57.5,76.3,94,107.6
		c29.1,24.9,60.6,46.2,94.7,63.7c32,16.5,65.3,29.3,100.1,38.4c22.8,5.9,45.8,10.5,69.2,12.7c8.2,0.8,16.5,0.4,24.8,1.4
		c20.7,0,41.3,0,62,0c0.8-0.8,1.9-0.5,2.9-0.5c9.3,0.1,18.7-0.3,27.9-1.4c62.4-7.9,121.1-27,176.1-57.4
		c58.3-32.2,107.8-74.5,149-126.7c39.4-49.9,67.9-105.4,85.6-166.5c7.8-26.9,13.5-54.3,16.2-82.2c0.8-8.1,0.3-16.2,1.4-24.3
		c0-20.7,0-41.3,0-62C980.2,459.2,980.5,458.1,980.5,457.1z M948.7,512c-5,117.9-50.2,219.9-133.8,302.9
		c-95.1,94.5-211.3,139.5-345.4,133.7c-117.7-5.1-219.6-50.3-302.4-133.7C72.6,719.8,27.6,603.6,33.3,469.5
		C38.4,351.8,83.8,250.1,167.1,167C256,78.4,364.6,34.2,489.2,32.5C616.8,33.8,726,77.9,814.9,167.1
		C909.4,261.9,954.3,378,948.7,512z"/>
</g>
</svg>
